# xmcd
#
# Track frame offsets:
#	150
#	16496
#	31030
#	46975
#	61335
#	78524
#	97620
#	114692
#	132892
#	154889
#	169097
#	184196
#	199623
#	222971
#	241083
#
# Disc length: 3458 seconds
#
# Revision: 0
# Processed by: cddbd v1.5.2PL0 Copyright (c) Steve Scherf et al.
# Submitted via: EZCDAudioConverter 3.1.7.1
#
DISCID=bc0d800f
DTITLE=รวมศิลปิน - The Lost Love Song
DYEAR=2015
DGENRE=
TTITLE0=อุ้ย รวีวรรณ จินดา - พี่ชายที่แสนดี
TTITLE1=ปั่น ไพบูรย์เกียรติ เขียวแก้ว - เฝ้าคอย
TTITLE2=ตั้ม สมประสงค์ - ช่างไม่รู้เลย
TTITLE3=กบ ทรงสิทธิ์ - ขีดเส้นใต้
TTITLE4=มิคกี้ - ครึ่งใจ
TTITLE5=เอ็ก วาย แซด - แอบเจ็บ
TTITLE6=สินจัย เปล่งพานิช - กอดหมอน
TTITLE7=สุรสีห์ อิทธิกุล - ปราสาททราย
TTITLE8=ป้อม ออโต้บาห์น - บัลลังก์เมฆ (Cover Version)
TTITLE9=พงษ์เทพ กระโดนชำนาญ - ยิ้มเหงาๆ เศร้างามๆ
TTITLE10=นรินทร ณ บางช้าง - กลับมาสักครั้ง
TTITLE11=ชรัส เฟื่องอารมย์ - คนไม่มีวาสนา
TTITLE12=อ๊อด คีรีบูน - หากรัก (New Version)
TTITLE13=มาเรียม B5 - บอกมาคำเดียว (Cover Version)
TTITLE14=Calories Blah Blah - ตัวสำรอง (Cover Version)
EXTD=
EXTT0=
EXTT1=
EXTT2=
EXTT3=
EXTT4=
EXTT5=
EXTT6=
EXTT7=
EXTT8=
EXTT9=
EXTT10=
EXTT11=
EXTT12=
EXTT13=
EXTT14=
PLAYORDER=
